<svg id="Layer_1" data-name="Layer 1" xmlns="http://www.w3.org/2000/svg" viewBox="0 0 63.09 62.42"><title>kc_logo</title><path d="M21.09,29.69h.3l4.73-11.31a1.26,1.26,0,0,1,1.25-.78h2.27a1.29,1.29,0,0,1,1.17,1.87L25.55,31.76,30.81,44a1.3,1.3,0,0,1-1.17,1.88H27.37a1.26,1.26,0,0,1-1.25-.78L21.39,33.83h-.3V44.55a1.24,1.24,0,0,1-1.33,1.37H17.6a1.23,1.23,0,0,1-1.32-1.37V18.93A1.2,1.2,0,0,1,17.6,17.6h2.16a1.21,1.21,0,0,1,1.33,1.33Z"/><path d="M46.56,27.61A1.23,1.23,0,0,1,45.24,29H43.08a1.23,1.23,0,0,1-1.32-1.37V23.46a2,2,0,0,0-2.16-2.23c-1.55,0-2.12.9-2.12,2.23V40.05c0,1.33.57,2.23,2.12,2.23a2,2,0,0,0,2.16-2.23V35.87a1.2,1.2,0,0,1,1.32-1.33h2.16a1.2,1.2,0,0,1,1.32,1.33v4.18c0,4.07-2.19,6.07-7,6.07s-6.93-2-6.93-6.07V23.46c0-4.06,2.16-6.06,6.93-6.06s7,2,7,6.06Z"/><rect x="5.25" y="5.58" width="52.35" height="52.35" style="fill:none;stroke:#000;stroke-miterlimit:10"/></svg>